<!-- Generated by IcoMoon.io -->
<svg version="1.1" xmlns="http://www.w3.org/2000/svg" width="32" height="32" viewBox="0 0 32 32">
<title>hangup</title>
<path d="M32,14.8c0-7.6-7.1-13.7-16-13.7C7.2,1.2,0,7.3,0,14.8c0,5.3,4.4,7.9,9.3,9.8c4.9,1.8,19.4,7.4,19.4,7.4l-3.2-8.2
		C29.5,22.2,32,19.3,32,14.8z M7.9,18.9c-2.1,0-4-1.6-4-4.3c0-2.7,1.9-4.3,4-4.3c2.1,0,4,1.6,4,4.3C11.9,17.3,10,18.9,7.9,18.9z
		 M20.3,18.6h-1.8l-0.2-1.2h-0.1c-0.7,0.9-1.5,1.4-2.6,1.4c-1.7,0.1-2.5-1.2-2.5-3.2v-5.1h2.1v4.8c0,1.3,0.4,1.7,1.2,1.7
		c0.7,0,1.1-0.3,1.6-1v-5.6h2.2V18.6z M25.3,19c-2-0.1-2.7-1.3-2.7-3.1v-3.7h-1.2v-1.6l1.3-0.1l0.2-2.2h1.8v2.2h2v1.7h-2v3.7
		c0,0.9,0.4,1.4,1.1,1.4c0.2,0,0.6-0.1,0.8-0.2l0.4,1.6C26.6,18.8,26,19,25.3,19z"/>
	<ellipse cx="7.8" cy="14.7" rx="1.8" ry="2.6"/>
</svg>
